<svg xmlns="http://www.w3.org/2000/svg" viewBox="0 0 174.33 145.68"><defs><style>.a{fill-rule:evenodd;}</style></defs><path class="a" d="M173.06,51.14c-1.4-.94-2.15-1.43-5.81-1.54a.36.36,0,0,0-.24.24c2,.86,4.82,1.84,4.82,3.78-.48,1.59-2.24,3.63-4.41,5.52a74.23,74.23,0,0,0-5-16.16,69.57,69.57,0,0,0-14.33-21C136.32,10.3,121,1.5,99.14.1A51.09,51.09,0,0,0,93.89,0c-.37,0-1,.06-1.52.06-1.9.17-3.85.33-5.73.55a21.1,21.1,0,0,0-3.73.07C80.74.46,78.54.36,76.21.15,73.1.06,72.87.06,69.48.15A73.4,73.4,0,0,0,30.42,13.74c-1.67,1.19-3.39,2.46-4.94,3.82C13.24,28.27,3.48,42.86.72,62.77.36,65.36.11,68.21,0,71v3.73C1,96.5,9.38,112.32,21.1,124s27.09,20.43,49.21,21.61c2.55.08,2.75.09,5.25,0a85.69,85.69,0,0,0,9.18-.79,21.06,21.06,0,0,0,2.24-.08c2.06.26,4.13.44,6.21.51s2.49.08,5.17,0a73.08,73.08,0,0,0,28.67-7,70.78,70.78,0,0,0,20.86-14.75C159.41,111.37,168,95.89,168.75,73.8V71.5c0-1.56-.13-3.12-.27-4.68a42.79,42.79,0,0,0,3.46-5.6c.53-1,.83-1.75,1.34-2.92C174.43,55.65,175,52.46,173.06,51.14ZM29.78,45.5A71.93,71.93,0,0,1,42.48,25,70.49,70.49,0,0,1,72.88,4.41a31.8,31.8,0,0,0-6,5.08l-.29.3-.29.31a50.33,50.33,0,0,0-6,8,72.64,72.64,0,0,0-4.6,9.11,100.47,100.47,0,0,0-6.3,21.68,142.38,142.38,0,0,0-2.11,25.33v.39a225,225,0,0,1-22.75-4.68A69.13,69.13,0,0,1,29.78,45.5Zm30.89,90.3a70.92,70.92,0,0,1-18.19-14.94,71.85,71.85,0,0,1-16.76-34.3,152.38,152.38,0,0,0,22.89,5.92q.49,3.34,1.17,6.66a101.18,101.18,0,0,0,6.81,21.13,61.23,61.23,0,0,0,4.89,8.87,49.78,49.78,0,0,0,6.23,7.66A28.83,28.83,0,0,0,74.38,142,68.86,68.86,0,0,1,60.67,135.8Zm65.56-15.33C116.07,132,103,140.44,85,144a15.35,15.35,0,0,1-5.4-3.69,35.78,35.78,0,0,1-5.19-7.15,59,59,0,0,1-4-8.28,88.73,88.73,0,0,1-3-9,141.61,141.61,0,0,1-4-20.29c0-.34-.07-.67-.11-1,2.43.26,4.88.49,7.37.67A207.14,207.14,0,0,0,102,94.83a134.08,134.08,0,0,1-4.88,25.62h10.83a106.51,106.51,0,0,0,7.32-27.39,173.58,173.58,0,0,0,19.6-4.84q4.29-1.39,8.4-3.09A69.83,69.83,0,0,1,126.23,120.47ZM129.5,74c-3.65.67-7.6,1.29-11.78,1.91-.39.06-.78.1-1.17.15a141.51,141.51,0,0,0-3.45-35.59H100.86c-.07,0-.07.12-.07.24a169.1,169.1,0,0,1,2.14,19.82c.22,5.44.51,11.07.4,16.68-4,.27-8,.38-12,.38a282,282,0,0,1-29.21-1.16c0-1.13,0-2.25,0-3.37a190.74,190.74,0,0,1,1.32-22.67,137.39,137.39,0,0,1,4-20.51c.89-3.12,1.87-6.19,3-9.12a58.15,58.15,0,0,1,3.94-8.33,34.58,34.58,0,0,1,5.2-7.16,16.71,16.71,0,0,1,5.69-3.9C103,5,116.06,13.38,126.31,24.82a72.26,72.26,0,0,1,17.95,45.6A126.28,126.28,0,0,1,129.5,74ZM109.3,27.61a82.8,82.8,0,0,1,2.92,9.63h-12c-.75-3.37-1.37-6.39-2.22-9.63Z"/></svg>