<svg xmlns="http://www.w3.org/2000/svg" width="32.327" height="36" viewBox="0 0 32.327 36">
  <path id="Path_18" data-name="Path 18" d="M975.161,804.827s-4-.558-12.92,3.625-10.311,6.31-10.311,6.31V820.3L949.4,817a15.63,15.63,0,0,0-3.285,6.063,25.113,25.113,0,0,0-.636,9.414,77.37,77.37,0,0,1,7.562-10.771c3.8-4.254,10.032-7.29,10.032-7.29a46.047,46.047,0,0,0-8.614,7.29,118.753,118.753,0,0,0-8.183,11.055l-3.221,6.848s-.533.973.069,1.165.946-.527.946-.527l3.182-6.956s3.168.342,8.461-3.271a48.5,48.5,0,0,0,8.71-7.622l-3.935-.931a22.435,22.435,0,0,0,5.542-1.777,9.871,9.871,0,0,0,3.663-3.758h-3.452s4.53-1.98,6.621-5.466A15.253,15.253,0,0,0,975.161,804.827Z" transform="translate(-942.834 -804.802)" fill="#2973A1"/>
</svg>
